<mxfile host="app.diagrams.net" modified="2024-05-23T11:13:28.150Z" agent="Mozilla/5.0 (Windows NT 10.0; Win64; x64) AppleWebKit/537.36 (KHTML, like Gecko) Chrome/124.0.0.0 Safari/537.36 Edg/124.0.0.0" etag="kBOW9nrl3GQ9G6La2VYH" version="24.4.6" type="device">
  <diagram name="PÃ¡gina-1" id="DUgbW9Hifhnu3nvroe5K">
    <mxGraphModel dx="1386" dy="1954" grid="1" gridSize="10" guides="1" tooltips="1" connect="1" arrows="1" fold="1" page="1" pageScale="1" pageWidth="827" pageHeight="1169" math="0" shadow="0">
      <root>
        <mxCell id="0" />
        <mxCell id="1" parent="0" />
        <mxCell id="aj4OhrKNP1JHMqtw9A_j-12" value="Hyper-V LAN&lt;div&gt;&lt;div&gt;34.35.78.0/24&lt;/div&gt;&lt;/div&gt;" style="ellipse;shape=cloud;whiteSpace=wrap;html=1;fillColor=none;" vertex="1" parent="1">
          <mxGeometry x="60" y="-50" width="306" height="310" as="geometry" />
        </mxCell>
        <mxCell id="aj4OhrKNP1JHMqtw9A_j-7" value="LAN&lt;div&gt;7.127.3.0/24&lt;/div&gt;" style="ellipse;shape=cloud;whiteSpace=wrap;html=1;fillColor=none;" vertex="1" parent="1">
          <mxGeometry x="280" y="330" width="360" height="310" as="geometry" />
        </mxCell>
        <mxCell id="aj4OhrKNP1JHMqtw9A_j-6" value="WLAN&lt;div&gt;89.2.19.0/24&lt;/div&gt;" style="ellipse;shape=cloud;whiteSpace=wrap;html=1;fillColor=none;" vertex="1" parent="1">
          <mxGeometry x="320" y="70" width="360" height="310" as="geometry" />
        </mxCell>
        <mxCell id="aj4OhrKNP1JHMqtw9A_j-10" style="edgeStyle=orthogonalEdgeStyle;rounded=0;orthogonalLoop=1;jettySize=auto;html=1;endArrow=none;endFill=0;" edge="1" parent="1" source="aj4OhrKNP1JHMqtw9A_j-1" target="aj4OhrKNP1JHMqtw9A_j-11">
          <mxGeometry relative="1" as="geometry">
            <mxPoint x="248.8900000000001" y="230" as="targetPoint" />
          </mxGeometry>
        </mxCell>
        <mxCell id="aj4OhrKNP1JHMqtw9A_j-1" value="" style="sketch=0;aspect=fixed;pointerEvents=1;shadow=0;dashed=0;html=1;strokeColor=none;labelPosition=center;verticalLabelPosition=bottom;verticalAlign=top;align=center;fillColor=#00188D;shape=mxgraph.azure.computer" vertex="1" parent="1">
          <mxGeometry x="160" y="280" width="177.78" height="160" as="geometry" />
        </mxCell>
        <mxCell id="aj4OhrKNP1JHMqtw9A_j-2" value="WiFi Antenna&lt;div&gt;89.2.19.123&lt;/div&gt;" style="sketch=0;pointerEvents=1;shadow=0;dashed=0;html=1;strokeColor=none;fillColor=#434445;aspect=fixed;labelPosition=center;verticalLabelPosition=bottom;verticalAlign=top;align=center;outlineConnect=0;shape=mxgraph.vvd.wi_fi;" vertex="1" parent="1">
          <mxGeometry x="389" y="230" width="50" height="50" as="geometry" />
        </mxCell>
        <mxCell id="aj4OhrKNP1JHMqtw9A_j-3" style="edgeStyle=orthogonalEdgeStyle;rounded=0;orthogonalLoop=1;jettySize=auto;html=1;entryX=0.934;entryY=0.113;entryDx=0;entryDy=0;entryPerimeter=0;endArrow=none;endFill=0;" edge="1" parent="1" source="aj4OhrKNP1JHMqtw9A_j-2" target="aj4OhrKNP1JHMqtw9A_j-1">
          <mxGeometry relative="1" as="geometry" />
        </mxCell>
        <mxCell id="aj4OhrKNP1JHMqtw9A_j-4" value="Ethernet Cable&lt;div&gt;7.127.3.12&lt;/div&gt;" style="sketch=0;pointerEvents=1;shadow=0;dashed=0;html=1;strokeColor=none;fillColor=#434445;aspect=fixed;labelPosition=center;verticalLabelPosition=bottom;verticalAlign=top;align=center;outlineConnect=0;shape=mxgraph.vvd.ethernet_port;" vertex="1" parent="1">
          <mxGeometry x="385" y="390" width="50" height="50" as="geometry" />
        </mxCell>
        <mxCell id="aj4OhrKNP1JHMqtw9A_j-5" style="edgeStyle=orthogonalEdgeStyle;rounded=0;orthogonalLoop=1;jettySize=auto;html=1;entryX=1.018;entryY=0.619;entryDx=0;entryDy=0;entryPerimeter=0;endArrow=none;endFill=0;" edge="1" parent="1" source="aj4OhrKNP1JHMqtw9A_j-4" target="aj4OhrKNP1JHMqtw9A_j-1">
          <mxGeometry relative="1" as="geometry" />
        </mxCell>
        <mxCell id="aj4OhrKNP1JHMqtw9A_j-11" value="Virtual Ethernet Cable&lt;div&gt;34.35.78.12&lt;/div&gt;" style="sketch=0;pointerEvents=1;shadow=0;dashed=0;html=1;strokeColor=none;fillColor=#434445;aspect=fixed;labelPosition=center;verticalLabelPosition=bottom;verticalAlign=top;align=center;outlineConnect=0;shape=mxgraph.vvd.ethernet_port;" vertex="1" parent="1">
          <mxGeometry x="200" y="150" width="50" height="50" as="geometry" />
        </mxCell>
        <mxCell id="aj4OhrKNP1JHMqtw9A_j-13" value="Virtual Machine&lt;div&gt;34.35.78.16&lt;/div&gt;" style="sketch=0;aspect=fixed;pointerEvents=1;shadow=0;dashed=0;html=1;strokeColor=none;labelPosition=center;verticalLabelPosition=bottom;verticalAlign=top;align=center;fillColor=#00188D;shape=mxgraph.azure.computer" vertex="1" parent="1">
          <mxGeometry x="170" width="44.44" height="40" as="geometry" />
        </mxCell>
      </root>
    </mxGraphModel>
  </diagram>
</mxfile>
